<svg width="48" height="48" viewBox="0 0 48 48" fill="none" xmlns="http://www.w3.org/2000/svg">
<path d="M4 42C3.43333 42 2.95833 41.8083 2.575 41.425C2.19167 41.0417 2 40.5667 2 40C2 39.4333 2.19167 38.9583 2.575 38.575C2.95833 38.1917 3.43333 38 4 38H44C44.5667 38 45.0417 38.1917 45.425 38.575C45.8083 38.9583 46 39.4333 46 40C46 40.5667 45.8083 41.0417 45.425 41.425C45.0417 41.8083 44.5667 42 44 42H4ZM8 36C6.9 36 5.95833 35.6083 5.175 34.825C4.39167 34.0417 4 33.1 4 32V10C4 8.9 4.39167 7.95833 5.175 7.175C5.95833 6.39167 6.9 6 8 6H40C41.1 6 42.0417 6.39167 42.825 7.175C43.6083 7.95833 44 8.9 44 10V32C44 33.1 43.6083 34.0417 42.825 34.825C42.0417 35.6083 41.1 36 40 36H8ZM8 32H40V10H8V32Z" fill="#1E2D5A"/>
<path d="M24 20C22.9 20 21.9583 19.6083 21.175 18.825C20.3917 18.0417 20 17.1 20 16C20 14.9 20.3917 13.9583 21.175 13.175C21.9583 12.3917 22.9 12 24 12C25.1 12 26.0417 12.3917 26.825 13.175C27.6083 13.9583 28 14.9 28 16C28 17.1 27.6083 18.0417 26.825 18.825C26.0417 19.6083 25.1 20 24 20ZM16 26V25.2C16 24.6333 16.1458 24.1125 16.4375 23.6375C16.7292 23.1625 17.1167 22.8 17.6 22.55C18.6333 22.0333 19.6833 21.6458 20.75 21.3875C21.8167 21.1292 22.9 21 24 21C25.1 21 26.1833 21.1292 27.25 21.3875C28.3167 21.6458 29.3667 22.0333 30.4 22.55C30.8833 22.8 31.2708 23.1625 31.5625 23.6375C31.8542 24.1125 32 24.6333 32 25.2V26C32 26.55 31.8042 27.0208 31.4125 27.4125C31.0208 27.8042 30.55 28 30 28H18C17.45 28 16.9792 27.8042 16.5875 27.4125C16.1958 27.0208 16 26.55 16 26Z" fill="#D77319"/>
</svg>
