<svg width="48" height="48" viewBox="0 0 48 48" fill="none" xmlns="http://www.w3.org/2000/svg">
<path d="M22 20C19.8 20 17.9167 19.2167 16.35 17.65C14.7833 16.0833 14 14.2 14 12C14 9.8 14.7833 7.91667 16.35 6.35C17.9167 4.78333 19.8 4 22 4C24.2 4 26.0833 4.78333 27.65 6.35C29.2167 7.91667 30 9.8 30 12C30 14.2 29.2167 16.0833 27.65 17.65C26.0833 19.2167 24.2 20 22 20ZM6 30.4C6 29.2667 6.28333 28.225 6.85 27.275C7.41667 26.325 8.2 25.6 9.2 25.1C11.2 24.1 13.275 23.3333 15.425 22.8C17.575 22.2667 19.7667 22 22 22C23.1667 22 24.3333 22.1 25.5 22.3C26.6667 22.5 27.8333 22.7333 29 23L27.3 24.7L25.6 26.4C25 26.2333 24.4 26.125 23.8 26.075C23.2 26.025 22.6 26 22 26C20.0667 26 18.175 26.2333 16.325 26.7C14.475 27.1667 12.7 27.8333 11 28.7C10.6667 28.8667 10.4167 29.1 10.25 29.4C10.0833 29.7 10 30.0333 10 30.4V32H22V33.95C22 34.3833 22.0833 34.775 22.25 35.125C22.4167 35.475 22.65 35.7667 22.95 36H10C8.9 36 7.95833 35.6083 7.175 34.825C6.39167 34.0417 6 33.1 6 32V30.4ZM22 16C23.1 16 24.0417 15.6083 24.825 14.825C25.6083 14.0417 26 13.1 26 12C26 10.9 25.6083 9.95833 24.825 9.175C24.0417 8.39167 23.1 8 22 8C20.9 8 19.9583 8.39167 19.175 9.175C18.3917 9.95833 18 10.9 18 12C18 13.1 18.3917 14.0417 19.175 14.825C19.9583 15.6083 20.9 16 22 16Z" fill="#1E2D5A"/>
<path d="M36 43.3333C35.4133 43.3333 34.9111 43.1244 34.4933 42.7067C34.0756 42.2889 33.8667 41.7867 33.8667 41.2H38.1333C38.1333 41.7867 37.9244 42.2889 37.5067 42.7067C37.0889 43.1244 36.5867 43.3333 36 43.3333ZM32.8 40.1333C32.4978 40.1333 32.2444 40.0311 32.04 39.8267C31.8356 39.6222 31.7333 39.3689 31.7333 39.0667C31.7333 38.7644 31.8356 38.5111 32.04 38.3067C32.2444 38.1022 32.4978 38 32.8 38H39.2C39.5022 38 39.7556 38.1022 39.96 38.3067C40.1644 38.5111 40.2667 38.7644 40.2667 39.0667C40.2667 39.3689 40.1644 39.6222 39.96 39.8267C39.7556 40.0311 39.5022 40.1333 39.2 40.1333H32.8ZM32 36.9333C30.7733 36.2044 29.8 35.2267 29.08 34C28.36 32.7733 28 31.44 28 30C28 27.7778 28.7778 25.8889 30.3333 24.3333C31.8889 22.7778 33.7778 22 36 22C38.2222 22 40.1111 22.7778 41.6667 24.3333C43.2222 25.8889 44 27.7778 44 30C44 31.44 43.64 32.7733 42.92 34C42.2 35.2267 41.2267 36.2044 40 36.9333H32Z" fill="#D77319"/>
</svg>
