<svg width="48" height="48" viewBox="0 0 48 48" fill="none" xmlns="http://www.w3.org/2000/svg">
<path d="M8 40C6.9 40 5.95833 39.6083 5.175 38.825C4.39167 38.0417 4 37.1 4 36V14C4 12.9 4.39167 11.9583 5.175 11.175C5.95833 10.3917 6.9 10 8 10H40C41.1 10 42.0417 10.3917 42.825 11.175C43.6083 11.9583 44 12.9 44 14V36C44 37.1 43.6083 38.0417 42.825 38.825C42.0417 39.6083 41.1 40 40 40H8ZM8 36H40V14H8V36Z" fill="#1E2D5A"/>
<path d="M34 27.0046V19.0602C34 18.4676 33.7824 17.9676 33.3472 17.5602C32.912 17.1528 32.3981 16.9676 31.8056 17.0046C30.3426 17.2269 28.9491 17.6574 27.625 18.2963C26.3009 18.9352 25.0926 19.7639 24 20.7824C22.9074 19.7639 21.6991 18.9352 20.375 18.2963C19.0509 17.6574 17.6574 17.2269 16.1944 17.0046C15.6019 16.9676 15.088 17.1528 14.6528 17.5602C14.2176 17.9676 14 18.4676 14 19.0602V27.0046C14 27.5972 14.1944 28.1019 14.5833 28.5185C14.9722 28.9352 15.463 29.162 16.0556 29.1991C17.2407 29.3843 18.3889 29.6898 19.5 30.1157C20.6111 30.5417 21.6481 31.1065 22.6111 31.8102C22.8148 31.9769 23.0324 32.1019 23.2639 32.1852C23.4954 32.2685 23.7407 32.3102 24 32.3102C24.2593 32.3102 24.5046 32.2685 24.7361 32.1852C24.9676 32.1019 25.1852 31.9769 25.3889 31.8102C26.3519 31.1065 27.3889 30.5417 28.5 30.1157C29.6111 29.6898 30.7593 29.3843 31.9444 29.1991C32.537 29.162 33.0278 28.9352 33.4167 28.5185C33.8056 28.1019 34 27.5972 34 27.0046Z" fill="#D77319"/>
</svg>
