<svg width="32" height="32" viewBox="0 0 32 32" fill="none" xmlns="http://www.w3.org/2000/svg">
<path d="M15.9998 29.3333C14.1554 29.3333 12.4221 28.9833 10.7998 28.2833C9.17762 27.5833 7.7665 26.6333 6.5665 25.4333C5.3665 24.2333 4.4165 22.8222 3.7165 21.2C3.0165 19.5777 2.6665 17.8444 2.6665 16C2.6665 14.1555 3.0165 12.4222 3.7165 10.8C4.4165 9.17774 5.3665 7.76663 6.5665 6.56663C7.7665 5.36663 9.17762 4.41663 10.7998 3.71663C12.4221 3.01663 14.1554 2.66663 15.9998 2.66663C17.8443 2.66663 19.5776 3.01663 21.1998 3.71663C22.8221 4.41663 24.2332 5.36663 25.4332 6.56663C26.6332 7.76663 27.5832 9.17774 28.2832 10.8C28.9832 12.4222 29.3332 14.1555 29.3332 16C29.3332 17.8444 28.9832 19.5777 28.2832 21.2C27.5832 22.8222 26.6332 24.2333 25.4332 25.4333C24.2332 26.6333 22.8221 27.5833 21.1998 28.2833C19.5776 28.9833 17.8443 29.3333 15.9998 29.3333ZM15.9998 26.6666C18.9776 26.6666 21.4998 25.6333 23.5665 23.5666C25.6332 21.5 26.6665 18.9777 26.6665 16C26.6665 13.0222 25.6332 10.5 23.5665 8.43329C21.4998 6.36663 18.9776 5.33329 15.9998 5.33329C13.0221 5.33329 10.4998 6.36663 8.43317 8.43329C6.3665 10.5 5.33317 13.0222 5.33317 16C5.33317 18.9777 6.3665 21.5 8.43317 23.5666C10.4998 25.6333 13.0221 26.6666 15.9998 26.6666Z" fill="#1E2D5A"/>
<path d="M11.7773 17.8867V23.2187C11.7773 23.4705 11.6922 23.6815 11.5218 23.8518C11.3515 24.0222 11.1405 24.1073 10.8887 24.1073C10.6369 24.1073 10.4258 24.0222 10.2555 23.8518C10.0852 23.6815 10 23.4705 10 23.2187V9.88867C10 9.63688 10.0852 9.42582 10.2555 9.25549C10.4258 9.08516 10.6369 9 10.8887 9H17.2648C17.4722 9 17.6573 9.06665 17.8203 9.19995C17.9832 9.33325 18.0869 9.50358 18.1313 9.71093L18.3535 10.7773H22.4413C22.6931 10.7773 22.9042 10.8625 23.0745 11.0328C23.2448 11.2032 23.33 11.4142 23.33 11.666V18.7753C23.33 19.0271 23.2448 19.2382 23.0745 19.4085C22.9042 19.5788 22.6931 19.664 22.4413 19.664H17.8425C17.6351 19.664 17.45 19.5973 17.2871 19.464C17.1241 19.3307 17.0205 19.1604 16.976 18.9531L16.7539 17.8867H11.7773Z" fill="#CB660A"/>
</svg>
