<svg width="32" height="32" viewBox="0 0 32 32" fill="none" xmlns="http://www.w3.org/2000/svg">
<g clip-path="url(#clip0_40_181)">
<path d="M16.1181 2.16594C16.716 2.16719 17.2013 1.68244 17.2026 1.08394C17.2026 0.485435 16.7184 0.000685175 16.1206 0.000122675C15.5221 -0.000502325 15.0367 0.483498 15.0361 1.08206C15.0354 1.67994 15.5196 2.16525 16.1181 2.16594Z" fill="#686868"/>
<path d="M15.6714 5.7978C16.0235 5.79905 16.3087 5.5138 16.3087 5.16174C16.3094 4.80962 16.0247 4.52443 15.6726 4.5238C15.3212 4.5238 15.0353 4.80905 15.0347 5.16055C15.0347 5.51262 15.3199 5.7978 15.6714 5.7978Z" fill="#686868"/>
<path d="M16.9287 3.56817C16.9287 3.98904 17.269 4.32929 17.6905 4.33054C18.1102 4.33054 18.4523 3.99092 18.4523 3.57004C18.4529 3.14973 18.1121 2.80823 17.6918 2.80823C17.2708 2.80704 16.9293 3.14786 16.9287 3.56817Z" fill="#686868"/>
<path d="M23.0189 17.9067C22.4611 17.1687 21.7937 16.5252 21.0351 15.9955C20.4904 15.6139 19.9074 15.2975 19.2952 15.0505V9.927C19.6291 9.62925 19.8399 9.19587 19.8399 8.71424C19.8399 7.81799 19.1113 7.08875 18.215 7.08875H13.7851C12.8889 7.08875 12.1603 7.81799 12.1603 8.71424C12.1603 9.19587 12.371 9.62925 12.705 9.927V15.0505C12.0928 15.2975 11.5098 15.6139 10.9651 15.9955C10.2064 16.5252 9.53913 17.1687 8.98119 17.9067C7.81975 19.4428 7.20557 21.2753 7.20557 23.206C7.20557 25.5551 8.12057 27.7636 9.78169 29.424C11.4423 31.0851 13.6513 32.0001 16.0004 32.0001C18.3496 32.0001 20.5579 31.0851 22.2184 29.424C23.8796 27.7635 24.7946 25.5551 24.7946 23.206C24.7946 21.2753 24.1804 19.4428 23.0189 17.9067ZM13.7851 8.16881H18.215C18.5159 8.16881 18.7604 8.41275 18.7604 8.71418C18.7604 8.945 18.6166 9.14137 18.4139 9.22081V9.20706H13.6088V9.22893C13.3942 9.15581 13.2398 8.95318 13.2398 8.71418C13.2398 8.41275 13.4837 8.16881 13.7851 8.16881ZM16.0004 30.92C11.7394 30.92 8.28582 27.4664 8.28582 23.2059C8.28582 19.7148 10.6043 16.7666 13.7852 15.8146V9.7755H18.2151V15.8146C21.396 16.7666 23.7145 19.7148 23.7145 23.2059C23.7145 27.4664 20.2609 30.92 16.0004 30.92Z" fill="#1E2D5A"/>
<path d="M20.0614 24.2892C18.6837 24.2892 17.4947 23.8539 16.2351 23.3935C14.9754 22.9333 13.6728 22.4573 12.1504 22.4573C11.2929 22.4573 10.4387 22.6043 9.54119 22.9069C9.53619 23.0082 9.53369 23.1083 9.53369 23.2058C9.53369 26.7714 12.4344 29.6721 16.0006 29.6721C17.678 29.6721 19.2691 29.0298 20.4811 27.8634C21.5982 26.7883 22.2886 25.3629 22.4363 23.8332C21.6401 24.1397 20.8614 24.2892 20.0614 24.2892Z" fill="#CB660A"/>
</g>
<defs>
<clipPath id="clip0_40_181">
<rect width="32" height="32" fill="white"/>
</clipPath>
</defs>
</svg>
