<svg width="32" height="32" viewBox="0 0 32 32" fill="none" xmlns="http://www.w3.org/2000/svg">
<path d="M26.3851 10.3096C24.3281 6.45371 20.2857 4 15.8781 4C11.2132 4 6.9549 6.74636 5.02902 10.9969C4.82924 11.4375 5.02479 11.9565 5.46572 12.1567C5.90593 12.3554 6.42536 12.1612 6.62545 11.72C8.2678 8.09498 11.8994 5.7527 15.8781 5.7527C19.5994 5.7527 23.0166 7.80264 24.7872 11.0341L23.2251 11.7417L27.4855 14.795L28 9.57854L26.3851 10.3096ZM26.1429 20.04C25.71 19.8231 25.1836 20.0001 24.9673 20.4325C23.2356 23.9016 19.7526 26.057 15.8777 26.057C12.2593 26.057 8.98411 24.1767 7.15606 21.103L8.6908 20.3372L4.3193 17.445L4 22.6774L5.58519 21.8866C7.71507 25.5579 11.5906 27.8094 15.8777 27.8094C20.421 27.8094 24.5048 25.2825 26.5351 21.2152C26.7517 20.7819 26.5758 20.2559 26.1429 20.04Z" fill="#1E2D5A"/>
<path d="M15.9998 15.4284C14.2245 15.4284 12.7856 13.9895 12.7856 12.2142C12.7856 10.4389 14.2246 9 15.9998 9C17.7751 9 19.214 10.4389 19.214 12.2142C19.214 13.9891 17.7751 15.4284 15.9998 15.4284ZM11 20.0712V21.4997H21V20.0712C21 18.0987 19.4013 16.4999 17.4287 16.4999H14.5716C12.5988 16.4996 11 18.0987 11 20.0712Z" fill="#CB660A"/>
</svg>
